<?xml version="1.0" encoding="UTF-8"?>
<svg id="Layer_1" data-name="Layer 1" xmlns="http://www.w3.org/2000/svg" viewBox="0 0 1024 1024">
  <defs>
    <style>
      .cls-1 {
        fill: #231f20;
      }
    </style>
  </defs>
  <path class="cls-1" d="M179.06,512c0-53.64,10.09-103.99,30.32-151.04,20.2-47.02,47.76-88.01,82.69-122.92,34.89-34.9,75.87-62.46,122.91-82.68,47.03-20.21,97.37-30.32,151.04-30.32h278.92v136.7h-278.92c-34.56,0-67.08,6.62-97.57,19.85-30.5,13.23-56.97,31.06-79.37,53.46-22.43,22.43-40.24,48.89-53.47,79.38-13.23,30.5-19.84,63.03-19.84,97.57s6.61,67.08,19.84,97.57c13.23,30.5,31.04,56.96,53.47,79.38,22.4,22.42,48.87,40.24,79.37,53.46,30.49,13.23,63.01,19.84,97.57,19.84h278.92v136.71h-281.13c-52.9-.73-102.91-11.2-149.93-31.42-47.04-20.21-87.83-47.77-122.36-82.69-34.56-34.9-61.93-75.88-82.14-122.92-20.23-47.03-30.32-97.01-30.32-149.93"/>
  <rect class="cls-1" x="482.24" y="443.65" width="362.7" height="136.7"/>
</svg>